<?xml version="1.0" encoding="UTF-8" standalone="no"?>
<!DOCTYPE svg PUBLIC "-//W3C//DTD SVG 1.1//EN" "http://www.w3.org/Graphics/SVG/1.1/DTD/svg11.dtd">
<svg version="1.1" xmlns="http://www.w3.org/2000/svg" xmlns:xlink="http://www.w3.org/1999/xlink" preserveAspectRatio="xMidYMid meet" viewBox="369.7228743707392 35.72712887983937 258.94919660691244 209.57102418439257" width="236.9" height="188.24"><defs><path d="M602.5 42.73C608.64 42.73 613.62 47.71 613.62 53.85C613.62 80.92 613.62 151.02 613.62 178.09C613.62 184.23 608.64 189.21 602.5 189.21C557.34 189.21 432.06 189.21 386.67 189.21C381.18 189.21 376.72 184.75 376.72 179.26C376.72 151.95 376.72 80.92 376.72 53.85C376.72 47.71 381.7 42.73 387.84 42.73C433 42.73 557.34 42.73 602.5 42.73Z" id="a1UtGVjn2H"></path><path d="M447.24 135.51C450.01 135.51 452.26 137.75 452.26 140.52C452.26 145.23 452.26 154.34 452.26 159.05C452.26 161.82 450.01 164.07 447.24 164.07C445.17 164.07 443.97 164.07 441.89 164.07C439.12 164.07 436.88 161.82 436.88 159.05C436.88 154.34 436.88 145.23 436.88 140.52C436.88 137.75 439.12 135.51 441.89 135.51C443.97 135.51 445.17 135.51 447.24 135.51Z" id="aRHONRz8d"></path><path d="M512.12 192.63L575.29 192.63C575.29 208.74 575.29 218.8 575.29 222.83C575.29 229.48 567.73 233.32 562.36 229.39C555.67 224.49 538.92 212.24 512.12 192.63Z" id="bTuHu1oCd"></path><path d="M447.24 136.66C450.01 136.66 452.26 138.9 452.26 141.67C452.26 146.38 452.26 155.49 452.26 160.2C452.26 162.97 450.01 165.21 447.24 165.21C445.17 165.21 443.97 165.21 441.89 165.21C439.12 165.21 436.88 162.97 436.88 160.2C436.88 155.49 436.88 146.38 436.88 141.67C436.88 138.9 439.12 136.66 441.89 136.66C443.97 136.66 445.17 136.66 447.24 136.66Z" id="c1EN877HdU"></path><path d="M591.67 54.85C597.19 54.85 601.67 59.33 601.67 64.85C601.67 87.16 601.67 144.06 601.67 166.36C601.67 171.88 597.19 176.36 591.67 176.36C551.07 176.36 439.27 176.36 398.67 176.36C393.15 176.36 388.67 171.88 388.67 166.36C388.67 144.06 388.67 87.16 388.67 64.85C388.67 59.33 393.15 54.85 398.67 54.85C439.27 54.85 551.07 54.85 591.67 54.85Z" id="d1ink5zPxT"></path><path d="M514.47 178.55L565 178.55C565 199.41 565 212.44 565 217.65C565 218.19 564.37 218.49 563.95 218.16C557.35 212.88 540.86 199.67 514.47 178.55Z" id="dTmLCL8PC"></path><path d="M457.17 93.46L539.36 93.46C539.36 122.1 539.36 140.01 539.36 147.17C539.36 149.11 538.12 150.82 536.28 151.43C523.83 155.53 511.3 157.57 498.67 157.57C485.94 157.57 473.04 155.49 459.99 151.31C458.31 150.78 457.17 149.22 457.17 147.46C457.17 140.26 457.17 122.26 457.17 93.46Z" id="a6P0yUNc8"></path><path d="M565.2 102.56C567.48 103.83 567.42 107.13 565.1 108.31C551.69 115.13 514.25 134.17 500.17 141.33C498.86 142 497.3 142 495.99 141.33C481.92 134.17 444.91 115.35 431.61 108.59C429.06 107.29 428.99 103.66 431.5 102.26C444.81 94.85 481.44 74.47 495.39 66.7C497.06 65.77 499.1 65.77 500.77 66.7C514.72 74.47 551.78 95.09 565.2 102.56Z" id="dOBUp736H"></path><path d="M441.82 105.54L447.31 105.54L447.31 138.49L441.82 138.49L441.82 105.54Z" id="b1JOA5BYzz"></path><path d="M447.24 135.51C450.01 135.51 452.26 137.75 452.26 140.52C452.26 145.23 452.26 154.34 452.26 159.05C452.26 161.82 450.01 164.07 447.24 164.07C445.17 164.07 443.97 164.07 441.89 164.07C439.12 164.07 436.88 161.82 436.88 159.05C436.88 154.34 436.88 145.23 436.88 140.52C436.88 137.75 439.12 135.51 441.89 135.51C443.97 135.51 445.17 135.51 447.24 135.51Z" id="cj79i3CzM"></path></defs><g><g><use xlink:href="#a1UtGVjn2H" opacity="1" fill="#ecf4fb" fill-opacity="1"></use><g><use xlink:href="#a1UtGVjn2H" opacity="1" fill-opacity="0" stroke="#ecf4fb" stroke-width="14" stroke-opacity="1"></use></g></g><g><use xlink:href="#aRHONRz8d" opacity="1" fill="#ecf4fb" fill-opacity="1"></use></g><g><use xlink:href="#bTuHu1oCd" opacity="1" fill="#ecf4fb" fill-opacity="1"></use><g><use xlink:href="#bTuHu1oCd" opacity="1" fill-opacity="0" stroke="#ecf4fb" stroke-width="14" stroke-opacity="1"></use></g></g><g><use xlink:href="#c1EN877HdU" opacity="1" fill="#ecf4fb" fill-opacity="1"></use></g><g><use xlink:href="#d1ink5zPxT" opacity="1" fill="#0a3056" fill-opacity="1"></use><g><use xlink:href="#d1ink5zPxT" opacity="1" fill-opacity="0" stroke="#0a3056" stroke-width="14" stroke-opacity="1"></use></g></g><g><use xlink:href="#dTmLCL8PC" opacity="1" fill="#0a3056" fill-opacity="1"></use><g><use xlink:href="#dTmLCL8PC" opacity="1" fill-opacity="0" stroke="#0a3056" stroke-width="14" stroke-opacity="1"></use></g></g><g><use xlink:href="#a6P0yUNc8" opacity="1" fill="#ecf4fb" fill-opacity="1"></use></g><g><use xlink:href="#dOBUp736H" opacity="1" fill="#ecf4fb" fill-opacity="1"></use><g><use xlink:href="#dOBUp736H" opacity="1" fill-opacity="0" stroke="#0a3056" stroke-width="5" stroke-opacity="1"></use></g></g><g><use xlink:href="#b1JOA5BYzz" opacity="1" fill="#ecf4fb" fill-opacity="1"></use></g><g><use xlink:href="#cj79i3CzM" opacity="1" fill="#ecf4fb" fill-opacity="1"></use></g></g></svg>